<svg  className="icon" viewBox="0 0 1024 1024" version="1.1" xmlns="http://www.w3.org/2000/svg" p-id="6921" width="200" height="200"><path d="M-0.038499 511.961501A512.038499 512.038499 0 0 1 511.846003 0a512.038499 512.038499 0 0 1 511.961501 511.961501 511.961501 511.961501 0 0 1-511.961501 511.961501A511.961501 511.961501 0 0 1-0.038499 511.961501z" fill="#FE7500" p-id="6922"></path><path d="M175.825551 730.482593a224.680953 224.680953 0 0 1-63.908565-8.46981 128.818107 128.818107 0 0 1-39.269118-18.325588 88.625009 88.625009 0 0 1-25.640424-27.796376 87.008046 87.008046 0 0 1-11.164749-35.958192 124.429205 124.429205 0 0 1 4.234905-43.042034 266.799007 266.799007 0 0 1 35.881194-78.76923 423.490488 423.490488 0 0 1 25.409429-34.726221 725.400707 725.400707 0 0 1 131.513046-125.661177c18.24859-13.320701 36.95917-25.794421 56.208738-37.113166s38.961125-21.713512 59.134672-30.799309 40.809083-17.709602 61.598616-25.024438 42.657042-13.78269 64.678547-19.249567 44.428002-10.009775 67.296489-13.551696 46.198962-6.23686 69.837431-7.699827c7.699827-0.615986 15.399654-0.923979 23.099481-0.923979a249.936386 249.936386 0 0 1 106.950598 23.099481 127.201143 127.201143 0 0 1 38.499135 26.7184 98.788781 98.788781 0 0 1 22.483495 35.804196 93.167907 93.167907 0 0 1 5.004888 38.499135 112.032484 112.032484 0 0 1-11.626739 40.96308c-4.388901 9.085796-9.239792 18.171592-14.937664 27.873374s-10.548763 17.401609-16.862622 26.949395c-11.780735 17.709602-24.562448 35.265208-36.882171 52.281825l-0.92398 1.308971c-15.938642 22.021505-33.802241 43.19603-51.049853 63.600571-9.701782 11.472742-19.711557 23.099481-29.336341 35.265208a184.795849 184.795849 0 0 0-20.635536 31.415295 40.886082 40.886082 0 0 0-4.92789 14.398676 17.093616 17.093616 0 0 0 2.001955 10.933755 20.173547 20.173547 0 0 0 18.556583 7.699827h4.542898l20.250546-2.078954c21.328521-2.155952 43.350026-4.311903 64.909542-7.314835 11.626739-1.616964 22.175502-3.310926 32.185277-5.158884 11.318746-2.078953 21.713512-4.388901 31.800285-7.006843 22.098504-5.77487 46.198962-12.781713 73.225356-21.559516 24.254455-7.699827 48.739905-16.246635 72.455372-24.408452 20.866531-7.160839 42.426047-14.552673 63.754568-21.559515 6.929844-3.002933-41.040078 25.101436-67.142492 38.499135-31.569291 16.092639-60.520641 29.875329-88.548011 42.041056a943.536807 943.536807 0 0 1-185.719828 60.597639 243.006542 243.006542 0 0 1-48.816904 4.773892 290.052485 290.052485 0 0 1-41.502068-3.002932 39.808106 39.808106 0 0 1-29.644334-18.479585 36.95917 36.95917 0 0 1-3.618918-8.161817 39.808106 39.808106 0 0 1-1.616964-9.008797 47.815926 47.815926 0 0 1 3.079931-19.788556 274.575833 274.575833 0 0 1 38.499135-70.915407c18.71058-23.715467 38.961125-46.968945 58.595684-69.298444 17.324611-19.865554 35.18821-40.424092 51.896834-61.213625 10.548763-13.012708 20.94353-27.257388 30.799308-42.349049s18.556583-29.105346 27.488383-44.96699a49.278893 49.278893 0 0 0 6.159862-17.940597 41.579066 41.579066 0 0 0-1.308971-17.478607 37.729153 37.729153 0 0 0-7.160839-13.397699 40.039101 40.039101 0 0 0-12.704715-10.009775 822.726521 822.726521 0 0 0-91.088954-37.960148l-24.254455-8.777802a5.158884 5.158884 0 0 0-1.924957 0 26.25641 26.25641 0 0 0-9.008797 2.848936 75.381307 75.381307 0 0 1-9.316791 3.54192l15.399654 14.167682 15.399654 14.167682a1854.888337 1854.888337 0 0 0-333.248515 88.548011c0 0.769983 0 1.462967-0.538988 2.078953s-0.615986 2.078953 0 2.694939a53.898789 53.898789 0 0 1 7.699827 17.632604 32.185277 32.185277 0 0 1-0.461989 15.399654 37.421159 37.421159 0 0 1-7.699827 13.859689 70.222423 70.222423 0 0 1-14.167682 12.319723 88.702008 88.702008 0 0 0-23.099481 22.329499 252.708324 252.708324 0 0 0 33.879239 7.699827 217.366118 217.366118 0 0 0 32.724265 2.540943 203.275434 203.275434 0 0 0 32.878261-2.69494 207.89533 207.89533 0 0 0 31.954282-7.699827 231.995789 231.995789 0 0 0 30.799309-13.012707 279.888713 279.888713 0 0 0 30.799308-18.017596l-5.389879-7.699827-5.389879-7.699827a49.586886 49.586886 0 0 1 26.795398 12.319724 37.113166 37.113166 0 0 1 11.010753 24.254455 19.942552 19.942552 0 0 1-2.155952 8.854801 47.122942 47.122942 0 0 0-1.77096 4.850891l-3.387924-3.618919a62.137604 62.137604 0 0 1-6.467855-7.699827 21.020528 21.020528 0 0 1-2.232949-5.620874c-0.46199-1.385969-0.923979-3.002933-1.616964-4.696894a307.993082 307.993082 0 0 1-35.804196 21.251523 266.722009 266.722009 0 0 1-36.728175 15.399654 244.623506 244.623506 0 0 1-76.536281 12.165726 270.26393 270.26393 0 0 1-41.117076-3.233927 318.464847 318.464847 0 0 1-42.503046-9.701782v14.321678a296.52034 296.52034 0 0 0 0.538988 31.261298 28.181367 28.181367 0 0 1-0.461989 8.084819 17.709602 17.709602 0 0 1-2.617942 6.159861 36.728175 36.728175 0 0 1-11.472742 9.778781c-12.550718 7.699827-24.870441 15.399654-36.574178 23.715467a229.146853 229.146853 0 0 0-33.032259 27.873374 41.194075 41.194075 0 0 0-12.781712 37.267163 34.72622 34.72622 0 0 0 3.618918 9.393789 40.886082 40.886082 0 0 0 6.467855 8.46981 51.434845 51.434845 0 0 0 9.085796 7.699827 67.21949 67.21949 0 0 0 11.703737 5.851868 197.808557 197.808557 0 0 0 73.148357 12.704715 352.960072 352.960072 0 0 0 42.503045-2.771938c35.034213-4.234905 69.298443-9.624784 105.949621-15.399654l36.343183-5.697872a707.537108 707.537108 0 0 1-88.394014 35.727197 497.947816 497.947816 0 0 1-90.087977 20.558539c-12.627716 1.616964-23.099481 2.771938-32.185277 3.54192-11.857734-0.307993-22.637492 0.153997-32.262275 0.153997z" fill="#FFFFFF" p-id="6923"></path></svg>