<svg  className="icon" viewBox="0 0 1024 1024" version="1.1" xmlns="http://www.w3.org/2000/svg" p-id="5790" width="200" height="200"><path d="M183.754793 538.947368c111.16571-23.883746 96.035169-156.807425 92.783979-185.818048-5.502015-44.766394-58.146294-123.04506-129.672488-116.917817-90.032971 8.127977-103.162779 138.050556-103.162779 138.050556-12.129442 60.147026 29.13567 188.569056 140.051288 164.685309zM301.923068 770.031994c-3.251191 9.378434-10.503847 33.262181-4.251557 54.019783 12.379534 46.642081 52.89437 48.767859 52.89437 48.767859h58.27134V730.517524h-62.397851c-28.010258 8.378068-41.515203 30.261082-44.516302 39.51447z m88.282329-454.041275c61.397484 0 111.040664-70.650873 111.040665-158.057882C501.371108 70.650873 451.602882 0 390.205397 0c-61.397484 0-111.040664 70.650873-111.040664 157.932837 0 87.407009 49.768226 158.057883 111.040664 158.057882z m264.596899 10.503847c82.155086 10.628892 134.924411-76.903163 145.428257-143.302479 10.753938-66.27427-42.265478-143.302479-100.411772-156.557333-58.27134-13.3799-130.922945 79.904262-137.550372 140.801563-8.002931 74.152155 10.628892 148.554402 92.533887 159.058249z m201.198681 390.392966s-127.046526-98.285993-201.198681-204.449872c-100.536818-156.557333-243.339113-92.909024-291.106607-13.254854-47.517401 79.65417-121.669557 130.047625-132.173403 143.302479-10.628892 13.129808-153.431188 90.158017-121.794603 230.95958C141.489315 1014.121382 252.780071 1011.370375 252.780071 1011.370375s82.03004 8.127977 177.189889-13.254854c95.159849-21.132739 177.189889 5.251923 177.189889 5.251923s222.33142 74.402247 283.228721-68.900232c60.772255-143.302479-34.387593-217.57968-34.387593-217.57968zM475.486628 930.215655H330.933692c-62.397851-12.504579-87.281964-55.020149-90.408109-62.272805-3.126145-7.377702-20.757602-41.640249-11.379167-99.911589 27.009891-87.281964 103.913054-93.534253 103.913054-93.534253h76.903163v-94.659665l65.523995 1.000366v349.377946z m269.223593-1.000366h-166.310905c-64.523629-16.63109-67.524728-62.397851-67.524728-62.397851V682.750031l67.524728-1.125413v165.310539c4.126511 17.631457 26.009525 20.882647 26.009525 20.882647h68.525095V682.750031h71.776285v246.465258z m235.586274-491.179876c0-31.761631-26.384662-127.421663-124.295518-127.421663-98.035902 0-111.16571 90.283063-111.16571 154.181463 0 60.897301 5.126878 145.928441 126.92148 143.302479 121.794603-2.876053 108.539748-138.175601 108.539748-170.062279z m0 0" fill="#3245DF" p-id="5791"></path></svg>