<?xml version="1.0" encoding="utf-8"?>
<!-- Generator: Adobe Illustrator 27.0.0, SVG Export Plug-In . SVG Version: 6.00 Build 0)  -->
<svg version="1.1" id="图层_1" xmlns="http://www.w3.org/2000/svg" xmlns:xlink="http://www.w3.org/1999/xlink" x="0px" y="0px"
	 viewBox="0 0 140 40.7" style="enable-background:new 0 0 140 40.7;" xml:space="preserve">
<style type="text/css">
	.st0{fill:#131416;}
	.st1{fill:#006DF8;}
	.st2{fill:url(#SVGID_1_);}
	.st3{fill:url(#SVGID_00000111163328063855103540000000126909601243905684_);}
	.st4{fill:url(#SVGID_00000036973093276175926300000015984898828458042260_);}
	.st5{fill:#FFFFFF;}
	.st6{fill:#FFFDFB;}
	.st7{fill:url(#SVGID_00000120544475537965489160000009693808097821616549_);}
	.st8{fill:url(#SVGID_00000142887660147858900120000010355801085938289849_);}
	.st9{fill:url(#SVGID_00000061466658343524473780000014169464938667976099_);}
</style>
<g>
	<g>
		<path class="st0" d="M54.9,10.2c-0.3-0.2-0.7-0.4-1.1-0.6c0.5-0.2,0.9-0.6,1.3-1c0.4-0.6,0.6-1.4,0.6-2.3c0-0.8-0.2-1.4-0.6-2
			c-0.4-0.6-1-1-1.7-1.3c-0.8-0.3-1.7-0.5-2.8-0.5h-7v15.5h7.2c0.8,0,1.6-0.1,2.2-0.3c0.7-0.2,1.3-0.5,1.8-0.9
			c0.5-0.4,0.9-0.9,1.2-1.5c0.3-0.6,0.4-1.3,0.4-2.1c0-0.7-0.1-1.3-0.4-1.8C55.8,11,55.4,10.5,54.9,10.2z M47.6,6.1h2.1
			c0.6,0,1,0.1,1.3,0.4c0.3,0.2,0.4,0.6,0.4,1c0,0.3-0.1,0.5-0.2,0.7c-0.1,0.2-0.3,0.4-0.5,0.5c-0.2,0.1-0.5,0.2-0.9,0.2h-2.2V6.1z
			 M52,13.9c-0.1,0.2-0.3,0.4-0.5,0.5c-0.2,0.1-0.5,0.2-0.9,0.2h-3v-2.8h2.9c0.4,0,0.7,0.1,0.9,0.2c0.3,0.1,0.4,0.3,0.6,0.5
			c0.1,0.2,0.2,0.4,0.2,0.7C52.2,13.4,52.2,13.7,52,13.9z"/>
		<path class="st0" d="M66.3,13.3c0,0.2,0,0.5-0.1,0.7c-0.1,0.2-0.2,0.4-0.4,0.5c-0.1,0.2-0.3,0.3-0.5,0.3c-0.2,0.1-0.5,0.1-0.7,0.1
			c-0.3,0-0.6-0.1-0.9-0.2c-0.2-0.1-0.4-0.3-0.6-0.6s-0.2-0.6-0.2-1V6.3h-4.1v7.3c0,1,0.2,1.9,0.5,2.6c0.3,0.7,0.8,1.3,1.4,1.6
			c0.6,0.4,1.4,0.6,2.3,0.6c0.7,0,1.3-0.1,1.8-0.4c0.6-0.3,1.1-0.6,1.5-1c0.1-0.1,0.1-0.1,0.2-0.2l0.1,1.4h3.8V6.3h-4.1V13.3z"/>
		<path class="st0" d="M82.1,12.4c-0.3-0.3-0.7-0.6-1.2-0.9c-0.5-0.3-1.1-0.5-1.8-0.7c-0.6-0.2-1.1-0.3-1.4-0.4
			c-0.3-0.1-0.5-0.2-0.7-0.3c-0.2-0.1-0.3-0.2-0.4-0.3c-0.1-0.1-0.1-0.2-0.1-0.4c0-0.1,0-0.2,0.1-0.3s0.1-0.2,0.2-0.2
			c0.1-0.1,0.2-0.1,0.3-0.1c0.1,0,0.3,0,0.5,0c0.3,0,0.6,0.1,1,0.2c0.4,0.1,0.7,0.3,1,0.5c0.3,0.2,0.6,0.4,0.9,0.6l2.1-2.3
			c-0.4-0.4-0.9-0.7-1.5-0.9c-0.5-0.3-1.1-0.5-1.7-0.6c-0.6-0.1-1.3-0.2-2-0.2c-0.6,0-1.2,0.1-1.8,0.3c-0.6,0.2-1.1,0.4-1.6,0.8
			c-0.5,0.3-0.8,0.7-1.1,1.2c-0.3,0.5-0.4,1-0.4,1.6c0,0.5,0.1,0.9,0.3,1.3c0.2,0.4,0.4,0.8,0.8,1.1c0.3,0.3,0.8,0.6,1.2,0.8
			c0.5,0.2,1,0.4,1.7,0.6c0.5,0.1,0.9,0.2,1.2,0.3c0.3,0.1,0.5,0.2,0.7,0.2c0.3,0.1,0.4,0.3,0.4,0.6c0,0.1,0,0.2-0.1,0.3
			c-0.1,0.1-0.1,0.2-0.2,0.2c-0.1,0.1-0.2,0.1-0.3,0.1c-0.1,0-0.3,0-0.4,0c-0.5,0-1-0.1-1.6-0.3c-0.6-0.2-1.1-0.5-1.6-1l-2.4,2.1
			c0.5,0.6,1.2,1.1,2.2,1.5c0.9,0.4,2,0.6,3.2,0.6c1,0,1.9-0.2,2.7-0.5c0.8-0.3,1.4-0.8,1.9-1.4c0.5-0.6,0.7-1.3,0.7-2.1
			c0-0.4-0.1-0.7-0.2-1C82.5,12.9,82.3,12.6,82.1,12.4z"/>
		<rect x="84.8" y="6.3" class="st0" width="4.1" height="11.8"/>
		<path class="st0" d="M88.6,0.5c-0.4-0.3-1-0.5-1.7-0.5c-0.7,0-1.3,0.2-1.7,0.6c-0.4,0.4-0.6,0.9-0.6,1.5c0,0.6,0.2,1.1,0.6,1.5
			c0.4,0.3,1,0.5,1.8,0.5c0.7,0,1.3-0.2,1.7-0.6C89,3.1,89.2,2.6,89.2,2C89.2,1.4,89,0.9,88.6,0.5z"/>
		<path class="st0" d="M101.9,6.5c-0.6-0.4-1.4-0.5-2.2-0.5c-0.7,0-1.3,0.1-1.9,0.4c-0.6,0.3-1.1,0.6-1.5,1c0,0-0.1,0.1-0.1,0.1
			L96,6.3h-3.9v11.8h4.1v-7c0-0.2,0-0.5,0.1-0.6c0.1-0.2,0.2-0.4,0.4-0.5c0.2-0.2,0.4-0.3,0.6-0.3c0.2-0.1,0.4-0.1,0.7-0.1
			c0.3,0,0.6,0,0.8,0.2c0.2,0.1,0.4,0.3,0.5,0.6c0.1,0.3,0.2,0.6,0.2,1v6.9h4.1v-7.3c0-1-0.2-1.9-0.5-2.6
			C102.9,7.5,102.5,6.9,101.9,6.5z"/>
		<path class="st0" d="M115.9,7.7c-0.5-0.5-1.1-1-1.8-1.3c-0.7-0.3-1.5-0.4-2.3-0.4c-0.9,0-1.7,0.2-2.4,0.5
			c-0.7,0.3-1.4,0.7-1.9,1.3c-0.5,0.6-0.9,1.2-1.2,2c-0.3,0.8-0.4,1.6-0.4,2.5c0,1.2,0.3,2.2,0.8,3.2c0.5,0.9,1.3,1.6,2.3,2.2
			c1,0.5,2.1,0.8,3.5,0.8c0.5,0,1.1-0.1,1.6-0.2c0.5-0.1,1-0.3,1.6-0.5c0.5-0.2,1-0.6,1.6-1l-1.9-2.7c-0.4,0.3-0.8,0.5-1.1,0.6
			c-0.3,0.1-0.8,0.2-1.2,0.2c-0.7,0-1.3-0.1-1.8-0.4c-0.5-0.2-0.8-0.6-1.1-1c-0.1-0.1-0.1-0.2-0.2-0.4h7.7l0-0.9
			c0-0.9-0.1-1.7-0.4-2.4C116.8,8.9,116.5,8.3,115.9,7.7z M110.6,9.7c0.3-0.2,0.7-0.3,1.3-0.3c0.4,0,0.7,0.1,1,0.2
			c0.3,0.1,0.5,0.3,0.7,0.6c0.2,0.2,0.2,0.5,0.3,0.8h-4.1c0-0.2,0.1-0.3,0.2-0.4C110,10.1,110.3,9.9,110.6,9.7z"/>
		<path class="st0" d="M128.2,12.4c-0.3-0.3-0.7-0.6-1.2-0.9c-0.5-0.3-1.1-0.5-1.8-0.7c-0.6-0.2-1.1-0.3-1.4-0.4
			c-0.3-0.1-0.5-0.2-0.7-0.3c-0.2-0.1-0.3-0.2-0.4-0.3c-0.1-0.1-0.1-0.2-0.1-0.4c0-0.1,0-0.2,0.1-0.3s0.1-0.2,0.2-0.2
			c0.1-0.1,0.2-0.1,0.3-0.1c0.1,0,0.3,0,0.5,0c0.3,0,0.6,0.1,1,0.2c0.4,0.1,0.7,0.3,1,0.5c0.3,0.2,0.6,0.4,0.9,0.6l2.1-2.3
			c-0.4-0.4-0.9-0.7-1.5-0.9c-0.5-0.3-1.1-0.5-1.7-0.6c-0.6-0.1-1.3-0.2-2-0.2c-0.6,0-1.2,0.1-1.8,0.3c-0.6,0.2-1.1,0.4-1.6,0.8
			c-0.5,0.3-0.8,0.7-1.1,1.2c-0.3,0.5-0.4,1-0.4,1.6c0,0.5,0.1,0.9,0.3,1.3c0.2,0.4,0.4,0.8,0.8,1.1c0.3,0.3,0.8,0.6,1.2,0.8
			c0.5,0.2,1,0.4,1.7,0.6c0.5,0.1,0.9,0.2,1.2,0.3c0.3,0.1,0.5,0.2,0.7,0.2c0.3,0.1,0.4,0.3,0.4,0.6c0,0.1,0,0.2-0.1,0.3
			c-0.1,0.1-0.1,0.2-0.2,0.2c-0.1,0.1-0.2,0.1-0.3,0.1c-0.1,0-0.3,0-0.4,0c-0.5,0-1-0.1-1.6-0.3c-0.6-0.2-1.1-0.5-1.6-1l-2.4,2.1
			c0.5,0.6,1.2,1.1,2.2,1.5c0.9,0.4,2,0.6,3.2,0.6c1,0,1.9-0.2,2.7-0.5c0.8-0.3,1.4-0.8,1.9-1.4c0.5-0.6,0.7-1.3,0.7-2.1
			c0-0.4-0.1-0.7-0.2-1C128.6,12.9,128.4,12.6,128.2,12.4z"/>
		<path class="st0" d="M139.8,13.2c-0.1-0.3-0.3-0.6-0.5-0.8c-0.3-0.3-0.7-0.6-1.2-0.9c-0.5-0.3-1.1-0.5-1.8-0.7
			c-0.6-0.2-1.1-0.3-1.4-0.4c-0.3-0.1-0.5-0.2-0.7-0.3c-0.2-0.1-0.3-0.2-0.4-0.3c-0.1-0.1-0.1-0.2-0.1-0.4c0-0.1,0-0.2,0.1-0.3
			c0-0.1,0.1-0.2,0.2-0.2c0.1-0.1,0.2-0.1,0.3-0.1c0.1,0,0.3,0,0.5,0c0.3,0,0.6,0.1,1,0.2c0.4,0.1,0.7,0.3,1,0.5
			c0.3,0.2,0.6,0.4,0.9,0.6l2.1-2.3c-0.4-0.4-0.9-0.7-1.5-0.9c-0.5-0.3-1.1-0.5-1.7-0.6c-0.6-0.1-1.3-0.2-2-0.2
			c-0.6,0-1.2,0.1-1.8,0.3c-0.6,0.2-1.1,0.4-1.6,0.8c-0.5,0.3-0.8,0.7-1.1,1.2c-0.3,0.5-0.4,1-0.4,1.6c0,0.5,0.1,0.9,0.3,1.3
			c0.2,0.4,0.4,0.8,0.8,1.1c0.3,0.3,0.8,0.6,1.2,0.8c0.5,0.2,1,0.4,1.7,0.6c0.5,0.1,0.9,0.2,1.2,0.3c0.3,0.1,0.5,0.2,0.7,0.2
			c0.3,0.1,0.4,0.3,0.4,0.6c0,0.1,0,0.2-0.1,0.3c-0.1,0.1-0.1,0.2-0.2,0.2c-0.1,0.1-0.2,0.1-0.3,0.1c-0.1,0-0.3,0-0.4,0
			c-0.5,0-1-0.1-1.6-0.3c-0.6-0.2-1.1-0.5-1.6-1l-2.4,2.1c0.5,0.6,1.2,1.1,2.2,1.5c0.9,0.4,2,0.6,3.2,0.6c1,0,1.9-0.2,2.7-0.5
			c0.8-0.3,1.4-0.8,1.9-1.4c0.5-0.6,0.7-1.3,0.7-2.1C140,13.9,139.9,13.5,139.8,13.2z"/>
	</g>
	<g>
		<path class="st0" d="M48,28.4l-4.4,12.2h1.3l1.2-3.4h5.1l1.2,3.4h1.4l-4.4-12.2H48z M50.7,35.9h-4.2l1.1-3.1
			c0.1-0.3,0.2-0.6,0.3-0.9c0.1-0.3,0.2-0.6,0.3-0.9c0.1-0.3,0.2-0.6,0.3-0.9c0-0.1,0.1-0.2,0.1-0.4c0,0.1,0.1,0.2,0.1,0.3
			c0.1,0.3,0.2,0.6,0.3,0.9c0.1,0.3,0.2,0.6,0.3,0.9c0.1,0.3,0.2,0.6,0.3,0.8L50.7,35.9z"/>
		<path class="st0" d="M61.3,36.3c-0.2-0.2-0.5-0.4-0.8-0.5c-0.3-0.1-0.7-0.3-1.2-0.4c-0.4-0.1-0.8-0.2-1-0.3
			c-0.3-0.1-0.5-0.2-0.7-0.4c-0.1-0.1-0.2-0.2-0.3-0.4c-0.1-0.1-0.1-0.3-0.1-0.5c0-0.2,0-0.4,0.1-0.6c0.1-0.2,0.2-0.3,0.4-0.4
			c0.2-0.1,0.4-0.2,0.6-0.3c0.2-0.1,0.5-0.1,0.7-0.1c0.3,0,0.6,0.1,0.9,0.2c0.3,0.1,0.5,0.2,0.8,0.4c0.3,0.2,0.5,0.4,0.7,0.6
			l0.8-0.9c-0.2-0.3-0.5-0.6-0.9-0.8c-0.3-0.2-0.7-0.4-1.1-0.5c-0.4-0.1-0.8-0.2-1.2-0.2c-0.4,0-0.8,0.1-1.2,0.2
			c-0.4,0.1-0.7,0.3-1,0.5c-0.3,0.2-0.5,0.5-0.6,0.8c-0.1,0.3-0.2,0.7-0.2,1c0,0.3,0,0.6,0.1,0.8c0.1,0.2,0.2,0.5,0.4,0.7
			c0.2,0.3,0.5,0.5,1,0.7c0.4,0.2,0.9,0.4,1.5,0.6c0.4,0.1,0.7,0.2,1,0.3c0.3,0.1,0.5,0.2,0.6,0.3c0.3,0.3,0.5,0.6,0.5,1
			c0,0.2,0,0.4-0.1,0.6c-0.1,0.2-0.2,0.3-0.4,0.5c-0.2,0.1-0.4,0.2-0.6,0.3c-0.2,0.1-0.5,0.1-0.7,0.1c-0.5,0-1-0.1-1.5-0.3
			c-0.4-0.2-0.8-0.5-1.1-0.9l-0.9,0.8c0.3,0.5,0.8,0.9,1.4,1.1c0.6,0.3,1.2,0.4,2,0.4c0.6,0,1.1-0.1,1.6-0.3
			c0.5-0.2,0.8-0.5,1.1-0.9c0.3-0.4,0.4-0.8,0.4-1.4c0-0.4-0.1-0.7-0.2-1C61.9,36.8,61.6,36.5,61.3,36.3z"/>
		<path class="st0" d="M70.1,36.3c-0.2-0.2-0.5-0.4-0.8-0.5c-0.3-0.1-0.7-0.3-1.2-0.4c-0.4-0.1-0.8-0.2-1-0.3
			c-0.3-0.1-0.5-0.2-0.7-0.4c-0.1-0.1-0.2-0.2-0.3-0.4c-0.1-0.1-0.1-0.3-0.1-0.5c0-0.2,0-0.4,0.1-0.6c0.1-0.2,0.2-0.3,0.4-0.4
			c0.2-0.1,0.4-0.2,0.6-0.3c0.2-0.1,0.5-0.1,0.7-0.1c0.3,0,0.6,0.1,0.9,0.2c0.3,0.1,0.5,0.2,0.8,0.4c0.3,0.2,0.5,0.4,0.7,0.6
			l0.8-0.9c-0.2-0.3-0.5-0.6-0.9-0.8c-0.3-0.2-0.7-0.4-1.1-0.5c-0.4-0.1-0.8-0.2-1.2-0.2c-0.4,0-0.8,0.1-1.2,0.2
			c-0.4,0.1-0.7,0.3-1,0.5c-0.3,0.2-0.5,0.5-0.6,0.8c-0.1,0.3-0.2,0.7-0.2,1c0,0.3,0,0.6,0.1,0.8c0.1,0.2,0.2,0.5,0.4,0.7
			c0.2,0.3,0.5,0.5,1,0.7c0.4,0.2,0.9,0.4,1.5,0.6c0.4,0.1,0.7,0.2,1,0.3c0.3,0.1,0.5,0.2,0.6,0.3c0.3,0.3,0.5,0.6,0.5,1
			c0,0.2,0,0.4-0.1,0.6c-0.1,0.2-0.2,0.3-0.4,0.5c-0.2,0.1-0.4,0.2-0.6,0.3c-0.2,0.1-0.5,0.1-0.7,0.1c-0.5,0-1-0.1-1.5-0.3
			c-0.4-0.2-0.8-0.5-1.1-0.9l-0.9,0.8c0.3,0.5,0.8,0.9,1.4,1.1c0.6,0.3,1.2,0.4,2,0.4c0.6,0,1.1-0.1,1.6-0.3
			c0.5-0.2,0.8-0.5,1.1-0.9c0.3-0.4,0.4-0.8,0.4-1.4c0-0.4-0.1-0.7-0.2-1C70.6,36.8,70.3,36.5,70.1,36.3z"/>
		<path class="st0" d="M79.7,31.9c-0.7-0.4-1.4-0.6-2.3-0.6c-0.9,0-1.6,0.2-2.3,0.6c-0.7,0.4-1.2,1-1.6,1.7C73.2,34.3,73,35.1,73,36
			c0,0.9,0.2,1.7,0.6,2.4c0.4,0.7,0.9,1.3,1.6,1.7c0.7,0.4,1.4,0.6,2.3,0.6c0.8,0,1.6-0.2,2.3-0.6c0.7-0.4,1.2-1,1.6-1.7
			c0.4-0.7,0.6-1.5,0.6-2.4c0-0.9-0.2-1.7-0.6-2.4C80.9,32.9,80.4,32.3,79.7,31.9z M80.2,37.8c-0.3,0.5-0.6,0.9-1.1,1.3
			c-0.5,0.3-1,0.5-1.6,0.5c-0.6,0-1.1-0.2-1.6-0.5c-0.5-0.3-0.9-0.7-1.1-1.3c-0.3-0.5-0.4-1.1-0.4-1.8c0-0.7,0.1-1.3,0.4-1.8
			c0.3-0.5,0.6-0.9,1.1-1.2c0.5-0.3,1-0.4,1.6-0.4c0.6,0,1.1,0.1,1.6,0.4c0.5,0.3,0.8,0.7,1.1,1.2c0.3,0.5,0.4,1.1,0.4,1.8
			C80.6,36.7,80.4,37.3,80.2,37.8z"/>
		<path class="st0" d="M86.6,33c0.5-0.3,1-0.5,1.6-0.5c0.3,0,0.7,0.1,1,0.2c0.3,0.1,0.6,0.3,0.9,0.5c0.3,0.2,0.5,0.5,0.7,0.8
			l0.7-0.9c-0.4-0.5-0.8-1-1.4-1.3c-0.6-0.3-1.3-0.5-2-0.5c-0.8,0-1.6,0.2-2.2,0.6c-0.6,0.4-1.1,1-1.5,1.7c-0.4,0.7-0.6,1.5-0.6,2.4
			c0,0.9,0.2,1.7,0.6,2.4c0.4,0.7,0.9,1.3,1.5,1.7c0.6,0.4,1.4,0.6,2.2,0.6c0.7,0,1.3-0.2,1.9-0.5c0.6-0.3,1.1-0.7,1.5-1.3l-0.7-0.9
			c-0.2,0.3-0.5,0.6-0.8,0.8c-0.3,0.2-0.6,0.4-0.9,0.5c-0.3,0.1-0.6,0.2-1,0.2c-0.6,0-1.1-0.2-1.5-0.5c-0.5-0.3-0.8-0.7-1.1-1.2
			c-0.3-0.5-0.4-1.1-0.4-1.8c0-0.7,0.1-1.3,0.4-1.8C85.8,33.7,86.1,33.3,86.6,33z"/>
		<path class="st0" d="M94.9,27.6c-0.3,0-0.5,0.1-0.7,0.3c-0.2,0.2-0.2,0.4-0.2,0.7c0,0.3,0.1,0.5,0.2,0.7c0.2,0.2,0.4,0.3,0.7,0.3
			c0.3,0,0.5-0.1,0.7-0.3c0.2-0.2,0.2-0.4,0.2-0.7c0-0.3-0.1-0.5-0.2-0.7C95.4,27.7,95.2,27.6,94.9,27.6z"/>
		<rect x="94.3" y="31.5" class="st0" width="1.2" height="9.1"/>
		<path class="st0" d="M105.6,33.1c0,0,0-0.1-0.1-0.1c-0.2-0.3-0.5-0.6-0.8-0.9c-0.3-0.2-0.6-0.4-1-0.6c-0.4-0.1-0.8-0.2-1.3-0.2
			c-0.8,0-1.4,0.2-2,0.6c-0.6,0.4-1.1,1-1.5,1.7c-0.4,0.7-0.5,1.5-0.5,2.4c0,0.9,0.2,1.7,0.5,2.4c0.4,0.7,0.8,1.3,1.4,1.7
			c0.6,0.4,1.3,0.6,2,0.6c0.4,0,0.8-0.1,1.2-0.2c0.4-0.1,0.7-0.3,1.1-0.6c0.3-0.2,0.6-0.5,0.8-0.8c0-0.1,0.1-0.1,0.1-0.2v1.6h1.3
			v-9.1h-1.2L105.6,33.1z M105.2,37.8c-0.3,0.5-0.6,0.9-1.1,1.2c-0.5,0.3-1,0.4-1.5,0.4c-0.6,0-1.1-0.2-1.5-0.5
			c-0.4-0.3-0.8-0.7-1.1-1.2c-0.3-0.5-0.4-1.1-0.4-1.8c0-0.7,0.1-1.3,0.4-1.8c0.3-0.5,0.6-0.9,1.1-1.2c0.4-0.3,1-0.5,1.5-0.5
			c0.6,0,1.1,0.2,1.5,0.5c0.4,0.3,0.8,0.7,1.1,1.2c0.3,0.5,0.4,1.1,0.4,1.8C105.6,36.7,105.5,37.3,105.2,37.8z"/>
		<polygon class="st0" points="112.5,29.1 111.2,29.1 111.2,31.5 109.3,31.5 109.3,32.7 111.2,32.7 111.2,40.6 112.5,40.6 
			112.5,32.7 114.6,32.7 114.6,31.5 112.5,31.5 		"/>
		<path class="st0" d="M117.9,27.6c-0.3,0-0.5,0.1-0.7,0.3c-0.2,0.2-0.2,0.4-0.2,0.7c0,0.3,0.1,0.5,0.2,0.7c0.2,0.2,0.4,0.3,0.7,0.3
			c0.3,0,0.5-0.1,0.7-0.3c0.2-0.2,0.2-0.4,0.2-0.7c0-0.3-0.1-0.5-0.2-0.7C118.4,27.7,118.2,27.6,117.9,27.6z"/>
		<rect x="117.3" y="31.5" class="st0" width="1.2" height="9.1"/>
		<path class="st0" d="M128.1,31.9c-0.7-0.4-1.4-0.6-2.3-0.6c-0.9,0-1.6,0.2-2.3,0.6c-0.7,0.4-1.2,1-1.6,1.7
			c-0.4,0.7-0.6,1.5-0.6,2.4c0,0.9,0.2,1.7,0.6,2.4c0.4,0.7,0.9,1.3,1.6,1.7c0.7,0.4,1.4,0.6,2.3,0.6c0.8,0,1.6-0.2,2.3-0.6
			c0.7-0.4,1.2-1,1.6-1.7c0.4-0.7,0.6-1.5,0.6-2.4c0-0.9-0.2-1.7-0.6-2.4C129.3,32.9,128.8,32.3,128.1,31.9z M128.6,37.8
			c-0.3,0.5-0.6,0.9-1.1,1.3c-0.5,0.3-1,0.5-1.6,0.5c-0.6,0-1.1-0.2-1.6-0.5c-0.5-0.3-0.9-0.7-1.1-1.3c-0.3-0.5-0.4-1.1-0.4-1.8
			c0-0.7,0.1-1.3,0.4-1.8c0.3-0.5,0.6-0.9,1.1-1.2c0.5-0.3,1-0.4,1.6-0.4c0.6,0,1.1,0.1,1.6,0.4c0.5,0.3,0.8,0.7,1.1,1.2
			c0.3,0.5,0.4,1.1,0.4,1.8C129,36.7,128.8,37.3,128.6,37.8z"/>
		<path class="st0" d="M139.7,32.9c-0.2-0.6-0.5-1-1-1.2c-0.4-0.3-1-0.4-1.6-0.4c-0.5,0-0.9,0.1-1.4,0.3c-0.4,0.2-0.8,0.5-1.1,0.8
			c-0.2,0.2-0.3,0.4-0.5,0.6l0-1.5h-1.2v9.1h1.2V35c0-0.3,0.1-0.7,0.2-1c0.1-0.3,0.3-0.6,0.5-0.8c0.2-0.2,0.5-0.4,0.8-0.5
			c0.3-0.1,0.7-0.2,1-0.2c0.4,0,0.8,0.1,1.1,0.3c0.3,0.2,0.5,0.5,0.7,0.9c0.1,0.4,0.2,0.9,0.2,1.5v5.4h1.3v-5.5
			C140,34.2,139.9,33.5,139.7,32.9z"/>
	</g>
	<g>
		<path class="st1" d="M38.7,23.2c0,2.6-0.5,5-1.4,7.1c-0.9,2.1-2.2,4-3.8,5.5c-1.6,1.5-3.6,2.7-5.7,3.6c-2.2,0.9-4.5,1.3-7.1,1.3
			c-3,0-5.7-0.5-8.3-1.6c-2.5-1-4.7-2.5-6.6-4.3c-1.9-1.8-3.3-4-4.3-6.5c-1-2.5-1.5-5.2-1.5-8.1c0-2.9,0.5-5.5,1.6-8
			c1-2.5,2.5-4.6,4.4-6.5c1.9-1.8,4.1-3.3,6.7-4.3c2.5-1,5.3-1.5,8.2-1.5c2.1,0,4.1,0.3,6,0.9c1.9,0.6,3.7,1.4,5.2,2.4
			c1.3,0.9,2.5,1.8,3.4,2.9c0.2,0.2,0.2,0.5,0,0.7l-4.1,4.1c-0.2,0.2-0.6,0.2-0.8,0C29.7,10.2,28.9,9.5,28,9
			c-1.1-0.7-2.3-1.2-3.5-1.6c-1.2-0.4-2.5-0.6-3.7-0.6c-1.9,0-3.6,0.3-5.2,1c-1.6,0.7-3,1.6-4.2,2.8c-1.2,1.2-2.1,2.6-2.8,4.2
			c-0.7,1.6-1,3.4-1,5.3c0,1.9,0.3,3.6,1,5.3c0.7,1.7,1.7,3.1,2.9,4.4c1.2,1.2,2.7,2.2,4.3,2.9c1.6,0.7,3.4,1,5.2,1
			c1.4,0,2.7-0.2,3.9-0.6c1.2-0.4,2.3-1,3.2-1.7c0.9-0.7,1.7-1.6,2.2-2.6c0.5-1,0.8-2,0.8-3.2v-0.1h-3.4c-0.3,0-0.5-0.4-0.3-0.6
			l5.7-5.7c0.2-0.2,0.4-0.2,0.6-0.2h4.1c0.3,0,0.6,0.2,0.6,0.6c0,0.3,0.1,0.5,0.1,0.8c0,0.5,0.1,1,0.1,1.5
			C38.7,22.5,38.7,22.9,38.7,23.2z"/>
		<linearGradient id="SVGID_1_" gradientUnits="userSpaceOnUse" x1="21.0027" y1="26.5409" x2="21.0027" y2="13.6266">
			<stop  offset="0" style="stop-color:#005CF4"/>
			<stop  offset="0.3339" style="stop-color:#0A6EF7"/>
			<stop  offset="1" style="stop-color:#259CFD"/>
		</linearGradient>
		<path class="st2" d="M20.5,26.6l-6-6c-0.3-0.3-0.3-0.7,0-0.9l6-6c0.3-0.3,0.7-0.3,0.9,0l6,6c0.3,0.3,0.3,0.7,0,0.9l-6,6
			C21.2,26.9,20.8,26.9,20.5,26.6z"/>
		
			<linearGradient id="SVGID_00000099633795173199667920000010365401869197772175_" gradientUnits="userSpaceOnUse" x1="19.7343" y1="-0.5152" x2="13.9056" y2="38.8768">
			<stop  offset="0" style="stop-color:#005CF4"/>
			<stop  offset="0.142" style="stop-color:#0460F4"/>
			<stop  offset="0.2929" style="stop-color:#116AF6"/>
			<stop  offset="0.4473" style="stop-color:#267CF8"/>
			<stop  offset="0.6012" style="stop-color:#4394FB"/>
			<stop  offset="0.7472" style="stop-color:#3298FC"/>
			<stop  offset="1" style="stop-color:#0DA2FF"/>
		</linearGradient>
		<path style="fill:url(#SVGID_00000099633795173199667920000010365401869197772175_);" d="M35.5,6.8l-4.1,4.1
			c-0.2,0.2-0.6,0.2-0.8,0c-0.5-0.5-1-0.9-1.5-1.2c-0.3-0.2-0.7-0.5-1-0.7c-1.1-0.7-2.3-1.2-3.5-1.6c-1.2-0.4-2.5-0.6-3.7-0.6
			c-1.9,0-3.6,0.3-5.2,1c-1.6,0.7-3,1.6-4.2,2.8c-1.2,1.2-2.1,2.6-2.8,4.2c-0.7,1.6-1,3.4-1,5.3c0,1.9,0.3,3.6,1,5.3
			c0.7,1.7,1.7,3.1,2.9,4.4c1.2,1.2,2.7,2.2,4.3,2.9c1.6,0.7,3.4,1,5.2,1c1.4,0,2.7-0.2,3.9-0.6c1.2-0.4,2.3-1,3.2-1.7
			c0.4-0.3,0.7-0.6,1-0.9C26,35,20.8,37.8,15,37.8c-2.9,0-5.7-0.7-8.1-2c-0.4-0.3-0.7-0.6-1.1-1c-1.9-1.8-3.3-4-4.3-6.5
			c-1-2.5-1.5-5.2-1.5-8.1c0-2.9,0.5-5.5,1.6-8c1-2.5,2.5-4.6,4.4-6.5c0.5-0.5,1.1-1,1.6-1.4c1.5-1.2,3.2-2.1,5-2.9
			c2.5-1,5.3-1.5,8.2-1.5c2.1,0,4.1,0.3,6,0.9c1.9,0.6,3.7,1.4,5.2,2.4c1.3,0.9,2.5,1.8,3.4,2.9C35.6,6.3,35.6,6.6,35.5,6.8z"/>
		
			<linearGradient id="SVGID_00000082369112863503871000000003488295340873611936_" gradientUnits="userSpaceOnUse" x1="35.7102" y1="4.8487" x2="6.7814" y2="12.2803">
			<stop  offset="0" style="stop-color:#1274F9"/>
			<stop  offset="0.1675" style="stop-color:#1677F9"/>
			<stop  offset="0.3455" style="stop-color:#237FFA"/>
			<stop  offset="0.5284" style="stop-color:#388DFB"/>
			<stop  offset="0.7146" style="stop-color:#56A1FC"/>
			<stop  offset="0.9016" style="stop-color:#7CBAFE"/>
			<stop  offset="1" style="stop-color:#93C9FF"/>
		</linearGradient>
		<path style="fill:url(#SVGID_00000082369112863503871000000003488295340873611936_);" d="M35.5,6.8l-4.1,4.1
			c-0.2,0.2-0.6,0.2-0.8,0C29.7,10.2,28.9,9.5,28,9c-1.1-0.7-2.3-1.2-3.5-1.6c-1.2-0.4-2.5-0.6-3.7-0.6c-1.9,0-3.6,0.3-5.2,1
			c-1.6,0.7-3,1.6-4.2,2.8c-1.2,1.2-2.1,2.6-2.8,4.2c-0.3,0.8-0.6,1.6-0.7,2.5C9.2,9.1,16.4,2.7,25.1,2.7c3.8,0,7.4,1.2,10.2,3.3
			c0,0,0.1,0.1,0.1,0.1C35.6,6.3,35.6,6.6,35.5,6.8z"/>
	</g>
</g>
</svg>
