<?xml version="1.0" encoding="utf-8"?>
<!-- Generator: Adobe Illustrator 27.0.0, SVG Export Plug-In . SVG Version: 6.00 Build 0)  -->
<svg version="1.1" id="图层_1" xmlns="http://www.w3.org/2000/svg" xmlns:xlink="http://www.w3.org/1999/xlink" x="0px" y="0px"
	 viewBox="0 0 472.84 144.88" style="enable-background:new 0 0 472.84 144.88;" xml:space="preserve">
<style type="text/css">
	.st0{fill:#001334;}
	.st1{fill:#0245F4;}
</style>
<g>
	<g>
		<path className="st0" d="M227.63,52.36c0-0.56-0.02-1.53-0.05-2.91c-0.03-1.38-0.09-2.77-0.19-4.18c-0.09-1.41-0.17-2.46-0.23-3.15
			H195.4v13.53h14.71c-0.13,1.07-0.36,2.1-0.8,3.05c-0.63,1.35-1.49,2.51-2.58,3.48c-1.1,0.97-2.4,1.74-3.9,2.3
			s-3.13,0.85-4.89,0.85c-2.51,0-4.84-0.45-7-1.36s-4.02-2.18-5.59-3.81s-2.79-3.55-3.66-5.78c-0.88-2.22-1.32-4.62-1.32-7.19
			c0-2.63,0.42-5.06,1.27-7.28c0.85-2.22,2.02-4.13,3.52-5.73s3.27-2.85,5.31-3.76c2.03-0.91,4.28-1.36,6.72-1.36
			c2.19,0,4.18,0.28,5.97,0.85c1.79,0.56,3.44,1.31,4.98,2.26c1.53,0.94,2.99,2.07,4.37,3.38l11.09-11.84
			c-1.88-2-4.13-3.82-6.76-5.45s-5.59-2.91-8.88-3.85S201.18,13,197.48,13c-5.39,0-10.29,0.85-14.7,2.54
			c-4.42,1.69-8.25,4.07-11.51,7.14s-5.75,6.69-7.47,10.85c-1.72,4.17-2.58,8.72-2.58,13.67c0,4.89,0.78,9.43,2.35,13.62
			c1.57,4.2,3.87,7.83,6.91,10.9s6.72,5.45,11.04,7.14s9.21,2.54,14.66,2.54c4.57,0,8.77-0.72,12.59-2.16s7.14-3.44,9.96-6.01
			s5.01-5.64,6.58-9.21C226.84,60.44,227.63,56.55,227.63,52.36z"/>
		<rect x="238.05" y="10.92" className="st0" width="17.47" height="69.53"/>
		<path className="st0" d="M306.21,78.01c4.17-2.26,7.44-5.32,9.82-9.21c2.38-3.88,3.57-8.36,3.57-13.44c0-5.07-1.19-9.55-3.57-13.44
			c-2.38-3.88-5.65-6.95-9.82-9.21c-4.17-2.25-8.91-3.38-14.23-3.38s-10.09,1.13-14.28,3.38c-4.2,2.26-7.49,5.33-9.87,9.21
			s-3.57,8.36-3.57,13.44c0,5.07,1.19,9.55,3.57,13.44c2.38,3.88,5.67,6.95,9.87,9.21c4.2,2.25,8.96,3.38,14.28,3.38
			S302.05,80.26,306.21,78.01z M283.24,61.14c-0.88-1.72-1.31-3.65-1.31-5.78c0-2.19,0.44-4.15,1.31-5.87
			c0.88-1.72,2.07-3.07,3.57-4.04s3.23-1.46,5.17-1.46c1.88,0,3.58,0.49,5.12,1.46c1.53,0.97,2.72,2.3,3.57,3.99
			s1.27,3.66,1.27,5.92c0,2.13-0.42,4.06-1.27,5.78c-0.85,1.72-2.04,3.07-3.57,4.04c-1.54,0.97-3.24,1.46-5.12,1.46
			c-1.94,0-3.66-0.49-5.17-1.46C285.31,64.21,284.12,62.87,283.24,61.14z"/>
		<path className="st0" d="M379.68,41.93c-1.91-3.95-4.51-7.03-7.8-9.25s-7.09-3.34-11.42-3.34c-2.13,0-4.17,0.3-6.11,0.89
			c-1.94,0.6-3.7,1.44-5.26,2.54c-0.9,0.63-1.7,1.33-2.44,2.08V10.92h-17.57v69.43h15.97l0.54-4.94c0.92,1,1.96,1.94,3.22,2.74
			c1.63,1.03,3.48,1.85,5.54,2.44c2.07,0.59,4.26,0.89,6.58,0.89c4.13,0,7.83-1.11,11.09-3.34c3.26-2.22,5.82-5.29,7.7-9.21
			c1.88-3.91,2.82-8.41,2.82-13.48C382.55,50.38,381.59,45.87,379.68,41.93z M364.28,61.61c-0.78,1.72-1.88,3.07-3.29,4.04
			s-3.12,1.46-5.12,1.46c-2.01,0-3.73-0.49-5.17-1.46c-1.44-0.97-2.55-2.32-3.33-4.04c-0.78-1.72-1.17-3.77-1.17-6.16
			c0-2.44,0.39-4.54,1.17-6.29s1.89-3.08,3.33-3.99s3.16-1.36,5.17-1.36c2,0,3.73,0.46,5.17,1.36c1.44,0.91,2.54,2.24,3.29,3.99
			c0.75,1.76,1.13,3.85,1.13,6.29C365.45,57.84,365.06,59.89,364.28,61.61z"/>
		<path className="st0" d="M424.45,75.14v5.31h17.57V30.37h-17.19v5.52c-0.85-1.04-1.77-2.02-2.82-2.88c-1.44-1.19-3.13-2.1-5.07-2.73
			c-1.94-0.62-4.07-0.94-6.39-0.94c-4.32,0-8.14,1.11-11.46,3.34c-3.32,2.22-5.92,5.28-7.8,9.16s-2.82,8.39-2.82,13.53
			c0,5.01,0.95,9.47,2.87,13.39c1.91,3.92,4.51,6.98,7.8,9.21c3.29,2.22,7,3.33,11.13,3.33c2.32,0,4.43-0.33,6.34-0.99
			c1.91-0.66,3.65-1.57,5.21-2.73C422.8,76.86,423.66,76.02,424.45,75.14z M420.41,65.56c-1.44,0.91-3.16,1.36-5.17,1.36
			s-3.71-0.45-5.12-1.36s-2.49-2.24-3.24-3.99s-1.13-3.82-1.13-6.2c0-2.44,0.38-4.54,1.13-6.3c0.75-1.75,1.83-3.08,3.24-3.99
			c1.41-0.91,3.11-1.36,5.12-1.36c2,0,3.73,0.46,5.17,1.36c1.44,0.91,2.55,2.24,3.34,3.99c0.78,1.76,1.17,3.85,1.17,6.3
			c0,2.38-0.39,4.45-1.17,6.2C422.96,63.32,421.85,64.65,420.41,65.56z"/>
		<rect x="455.27" y="10.92" className="st0" width="17.47" height="69.53"/>
		<path className="st0" d="M185.22,117.27c-0.95-0.76-2.09-1.41-3.43-1.95c-1.34-0.55-2.84-1.01-4.51-1.4
			c-1.42-0.32-2.63-0.67-3.64-1.04s-1.83-0.79-2.46-1.25c-0.63-0.47-1.09-1.01-1.38-1.64s-0.43-1.34-0.43-2.15
			c0-1.09,0.31-2.07,0.92-2.92s1.46-1.52,2.53-2c1.08-0.48,2.32-0.72,3.74-0.72c1.22,0,2.34,0.2,3.36,0.6
			c1.01,0.4,1.95,0.99,2.8,1.76s1.62,1.69,2.29,2.75l2.65-2.61c-0.77-1.25-1.69-2.33-2.75-3.23c-1.06-0.9-2.28-1.58-3.64-2.05
			c-1.37-0.47-2.92-0.7-4.66-0.7c-1.54,0-2.99,0.23-4.34,0.68c-1.35,0.45-2.53,1.09-3.52,1.91c-1,0.82-1.78,1.79-2.34,2.92
			s-0.84,2.35-0.84,3.67c0,1.38,0.22,2.58,0.65,3.6c0.44,1.01,1.08,1.91,1.93,2.68s1.9,1.42,3.14,1.95s2.68,0.99,4.32,1.38
			c1.13,0.29,2.15,0.58,3.06,0.87c0.92,0.29,1.73,0.61,2.44,0.96c0.71,0.36,1.3,0.76,1.79,1.21c0.48,0.45,0.84,0.97,1.09,1.55
			c0.24,0.58,0.36,1.24,0.36,1.98c0,1.13-0.34,2.12-1.01,2.99c-0.68,0.87-1.61,1.55-2.8,2.03c-1.19,0.48-2.51,0.72-3.96,0.72
			c-2,0-3.79-0.43-5.38-1.3s-3.14-2.38-4.66-4.54l-2.61,2.9c0.96,1.42,2.08,2.61,3.33,3.57c1.25,0.97,2.64,1.69,4.15,2.17
			s3.12,0.72,4.83,0.72c2.38,0,4.46-0.42,6.25-1.25c1.79-0.84,3.18-2,4.17-3.5c1-1.5,1.5-3.24,1.5-5.24c0-1.29-0.25-2.43-0.75-3.43
			C186.9,118.9,186.17,118.02,185.22,117.27z"/>
		<path className="st0" d="M213.26,110.51c-1.01-1.08-2.22-1.92-3.62-2.53c-1.4-0.61-2.95-0.92-4.66-0.92c-1.8,0-3.47,0.33-5.02,0.99
			c-1.54,0.66-2.87,1.59-3.98,2.77c-1.11,1.19-1.97,2.58-2.58,4.18c-0.61,1.59-0.92,3.37-0.92,5.33c0,2.54,0.55,4.8,1.64,6.76
			s2.61,3.49,4.56,4.58c1.95,1.1,4.17,1.64,6.68,1.64c1.29,0,2.54-0.17,3.76-0.51c1.22-0.34,2.35-0.79,3.38-1.35
			s1.91-1.21,2.65-1.95l-1.88-2.61c-1.42,1.19-2.71,1.99-3.88,2.39s-2.36,0.6-3.55,0.6c-2.03,0-3.76-0.4-5.19-1.21
			c-1.43-0.8-2.53-1.94-3.31-3.4c-0.66-1.25-0.98-2.73-1.07-4.37h19.9l0.05-1.69c0.06-1.77-0.16-3.39-0.68-4.87
			C215.04,112.87,214.28,111.59,213.26,110.51z M200.31,111.62c1.32-0.72,2.88-1.09,4.68-1.09c1.54,0,2.87,0.34,3.98,1.01
			c1.11,0.68,1.97,1.55,2.58,2.63c0.61,1.08,0.95,2.2,1.01,3.35v0.34H196.4c0.17-1.13,0.42-2.17,0.86-3.04
			C197.97,113.41,198.99,112.34,200.31,111.62z"/>
		<path className="st0" d="M232.88,107.11c-1.32,0-2.53,0.29-3.62,0.87c-1.09,0.58-2.03,1.35-2.82,2.32c-0.58,0.71-1.01,1.49-1.35,2.29
			l-0.07-4.94h-3.62v25.19h3.67v-14.29c0-1.03,0.16-1.99,0.48-2.9c0.32-0.9,0.79-1.7,1.4-2.39c0.61-0.69,1.35-1.23,2.22-1.62
			s1.85-0.58,2.94-0.58c0.39,0,0.8,0.04,1.23,0.12s0.86,0.22,1.28,0.41l1.01-4.05c-0.32-0.13-0.72-0.23-1.21-0.31
			C233.95,107.15,233.43,107.11,232.88,107.11z"/>
		<polygon className="st0" points="251.06,127.38 243.02,107.64 239.01,107.64 249.63,132.83 252.24,132.83 263.53,107.64 
			259.67,107.64 		"/>
		<rect x="268.74" y="107.64" className="st0" width="3.62" height="25.19"/>
		<path className="st0" d="M270.53,96.92c-0.87,0-1.54,0.24-2.03,0.72c-0.48,0.48-0.72,1.13-0.72,1.93s0.23,1.44,0.7,1.91
			c0.47,0.47,1.15,0.7,2.05,0.7c0.87,0,1.54-0.24,2.03-0.72c0.48-0.48,0.72-1.11,0.72-1.88c0-0.84-0.24-1.49-0.72-1.95
			C272.07,97.16,271.4,96.92,270.53,96.92z"/>
		<path className="st0" d="M286.5,111.76c1.35-0.85,2.88-1.28,4.58-1.28c0.97,0,1.94,0.17,2.92,0.51s1.9,0.81,2.75,1.42
			s1.58,1.32,2.2,2.12l2.12-2.61c-1.06-1.51-2.48-2.69-4.25-3.55c-1.77-0.85-3.73-1.28-5.89-1.28c-2.41,0-4.55,0.56-6.42,1.69
			s-3.34,2.68-4.42,4.66c-1.08,1.98-1.62,4.22-1.62,6.73s0.54,4.75,1.62,6.73s2.55,3.54,4.42,4.68s3.99,1.71,6.37,1.71
			c1.96,0,3.86-0.43,5.7-1.3c1.83-0.87,3.3-2.03,4.39-3.47l-2.12-2.61c-0.71,0.87-1.48,1.59-2.32,2.17
			c-0.84,0.58-1.72,1.02-2.65,1.33c-0.93,0.31-1.88,0.46-2.85,0.46c-1.67,0-3.19-0.42-4.54-1.25c-1.35-0.84-2.42-1.99-3.21-3.45
			c-0.79-1.46-1.18-3.13-1.18-4.99c0-1.87,0.39-3.52,1.18-4.97C284.08,113.77,285.15,112.62,286.5,111.76z"/>
		<path className="st0" d="M324.65,110.51c-1.01-1.08-2.22-1.92-3.62-2.53c-1.4-0.61-2.95-0.92-4.66-0.92c-1.8,0-3.47,0.33-5.02,0.99
			c-1.54,0.66-2.87,1.59-3.98,2.77c-1.11,1.19-1.97,2.58-2.58,4.18c-0.61,1.59-0.92,3.37-0.92,5.33c0,2.54,0.55,4.8,1.64,6.76
			s2.61,3.49,4.56,4.58c1.95,1.1,4.17,1.64,6.68,1.64c1.29,0,2.54-0.17,3.76-0.51s2.35-0.79,3.38-1.35s1.91-1.21,2.65-1.95
			l-1.88-2.61c-1.42,1.19-2.71,1.99-3.88,2.39c-1.18,0.4-2.36,0.6-3.55,0.6c-2.03,0-3.76-0.4-5.19-1.21
			c-1.43-0.8-2.53-1.94-3.31-3.4c-0.66-1.25-0.98-2.73-1.07-4.37h19.9l0.05-1.69c0.06-1.77-0.16-3.39-0.68-4.87
			C326.43,112.87,325.67,111.59,324.65,110.51z M311.69,111.62c1.32-0.72,2.88-1.09,4.68-1.09c1.54,0,2.87,0.34,3.98,1.01
			c1.11,0.68,1.97,1.55,2.58,2.63s0.95,2.2,1.01,3.35v0.34h-16.16c0.17-1.13,0.42-2.17,0.86-3.04
			C309.36,113.41,310.37,112.34,311.69,111.62z"/>
		<path className="st0" d="M370.43,119.46c0,1.9-0.42,3.6-1.26,5.12c-0.84,1.51-1.99,2.7-3.45,3.57s-3.13,1.3-4.99,1.3
			c-1.77,0-3.37-0.43-4.8-1.3s-2.57-2.06-3.4-3.57c-0.84-1.51-1.25-3.22-1.25-5.12V99.04h-3.76v20.85c0,2.54,0.57,4.82,1.71,6.83
			s2.71,3.59,4.71,4.73c1.99,1.14,4.26,1.71,6.81,1.71c2.57,0,4.87-0.57,6.88-1.71s3.59-2.72,4.73-4.73s1.71-4.29,1.71-6.83V99.04
			h-3.62v20.42H370.43z"/>
		<path className="st0" d="M399.44,108.22c-1.25-0.74-2.82-1.11-4.68-1.11c-1.38,0-2.73,0.28-4.03,0.85c-1.3,0.56-2.42,1.29-3.35,2.2
			c-0.57,0.55-0.99,1.15-1.33,1.78l-0.12-4.28h-3.57v25.19h3.62V117.5c0-0.96,0.19-1.86,0.58-2.7s0.92-1.58,1.59-2.22
			c0.68-0.64,1.48-1.15,2.41-1.52s1.95-0.55,3.04-0.55c1.32-0.03,2.43,0.21,3.33,0.72c0.9,0.52,1.57,1.31,2,2.39
			s0.65,2.45,0.65,4.13v15.11h3.67v-15.3c0-2.38-0.32-4.34-0.97-5.89C401.64,110.1,400.69,108.96,399.44,108.22z"/>
		<path className="st0" d="M412.9,96.92c-0.87,0-1.54,0.24-2.03,0.72c-0.48,0.48-0.72,1.13-0.72,1.93s0.23,1.44,0.7,1.91
			s1.15,0.7,2.05,0.7c0.87,0,1.54-0.24,2.03-0.72c0.48-0.48,0.72-1.11,0.72-1.88c0-0.84-0.24-1.49-0.72-1.95
			C414.44,97.16,413.77,96.92,412.9,96.92z"/>
		<rect x="411.11" y="107.64" className="st0" width="3.62" height="25.19"/>
		<path className="st0" d="M440.43,108.8c-1.95-1.12-4.16-1.69-6.64-1.69c-2.51,0-4.74,0.56-6.68,1.69c-1.95,1.13-3.47,2.67-4.58,4.63
			s-1.67,4.2-1.67,6.71c0,2.54,0.56,4.81,1.67,6.81c1.11,1.99,2.64,3.56,4.58,4.68c1.95,1.13,4.17,1.69,6.68,1.69
			c2.48,0,4.69-0.56,6.64-1.69c1.95-1.13,3.47-2.69,4.58-4.68s1.67-4.26,1.67-6.81c0-2.51-0.56-4.74-1.67-6.71
			C443.91,111.47,442.38,109.92,440.43,108.8z M441.76,125.13c-0.77,1.46-1.85,2.62-3.23,3.47s-2.96,1.28-4.73,1.28
			s-3.35-0.42-4.75-1.28c-1.4-0.85-2.49-2.01-3.28-3.47c-0.79-1.46-1.17-3.13-1.13-5c-0.03-1.83,0.35-3.48,1.13-4.95
			c0.79-1.46,1.88-2.61,3.28-3.43s2.98-1.23,4.75-1.23s3.35,0.41,4.73,1.23s2.46,1.95,3.23,3.4s1.16,3.11,1.16,4.97
			C442.92,122,442.53,123.67,441.76,125.13z"/>
		<path className="st0" d="M471.88,111.64c-0.64-1.54-1.59-2.69-2.85-3.43c-1.25-0.74-2.82-1.11-4.68-1.11c-1.38,0-2.73,0.28-4.03,0.85
			c-1.3,0.56-2.42,1.29-3.35,2.2c-0.57,0.55-0.99,1.15-1.33,1.78l-0.12-4.29h-3.57v25.19h3.62v-15.35c0-0.96,0.19-1.86,0.58-2.7
			s0.92-1.58,1.59-2.22c0.68-0.64,1.48-1.15,2.41-1.52s1.95-0.55,3.04-0.55c1.32-0.03,2.43,0.21,3.33,0.72
			c0.9,0.52,1.57,1.31,2,2.39s0.65,2.45,0.65,4.13v15.11h3.67v-15.3C472.84,115.15,472.52,113.19,471.88,111.64z"/>
	</g>
	<path className="st1" d="M17.72,17.72v24.7l0.02,42.43c0,14.3,7.03,26.95,17.83,34.68V59.97h-8.75V42.24h26.5v0.55h-0.01v102.03
		c-6.25-0.73-12.21-2.41-17.73-4.91c-20.12-9.07-34.38-28.86-35.51-52.1C0.03,86.82,0,85.85,0,84.85V8.32c0-4.6,3.73-8.33,8.33-8.33
		h44.99v17.73L17.72,17.72L17.72,17.72z M116.11,17.72V8.33c0-4.6-3.73-8.33-8.33-8.33H62.47v59.95h35.9v24.9
		c0,14.45-7.18,27.22-18.18,34.93c-0.01,0.01-0.03,0.02-0.03,0.03V69.18H62.42v75.7c6.26-0.68,12.21-2.33,17.74-4.79
		c20.32-9,34.75-28.89,35.89-52.27c0.04-0.99,0.07-1.96,0.07-2.96V42.25L80.2,42.21V17.72H116.11z"/>
</g>
</svg>
